<mxfile host="app.diagrams.net" agent="Mozilla/5.0 (Windows NT 10.0; Win64; x64) AppleWebKit/537.36 (KHTML, like Gecko) Chrome/139.0.0.0 Safari/537.36" version="27.2.0">
  <diagram name="Page-1" id="knrP1FRMyhIRJTOhsAG8">
    <mxGraphModel dx="1042" dy="534" grid="1" gridSize="10" guides="1" tooltips="1" connect="1" arrows="1" fold="1" page="1" pageScale="1" pageWidth="827" pageHeight="1169" math="0" shadow="0">
      <root>
        <mxCell id="0" />
        <mxCell id="1" parent="0" />
        <mxCell id="7wEqkuw75IH8k5fswQXJ-3" value="" style="rounded=0;whiteSpace=wrap;html=1;" parent="1" vertex="1">
          <mxGeometry x="299" y="50" width="280" height="710" as="geometry" />
        </mxCell>
        <mxCell id="7wEqkuw75IH8k5fswQXJ-4" value="Register Account" style="ellipse;whiteSpace=wrap;html=1;" parent="1" vertex="1">
          <mxGeometry x="394" y="140" width="90" height="50" as="geometry" />
        </mxCell>
        <mxCell id="7wEqkuw75IH8k5fswQXJ-5" value="Login-Logout" style="ellipse;whiteSpace=wrap;html=1;" parent="1" vertex="1">
          <mxGeometry x="394" y="200" width="90" height="50" as="geometry" />
        </mxCell>
        <mxCell id="7wEqkuw75IH8k5fswQXJ-6" value="Locate Nearby" style="ellipse;whiteSpace=wrap;html=1;" parent="1" vertex="1">
          <mxGeometry x="394" y="315.25" width="90" height="50" as="geometry" />
        </mxCell>
        <mxCell id="7wEqkuw75IH8k5fswQXJ-7" value="Call Service" style="ellipse;whiteSpace=wrap;html=1;" parent="1" vertex="1">
          <mxGeometry x="394" y="375.25" width="90" height="50" as="geometry" />
        </mxCell>
        <mxCell id="7wEqkuw75IH8k5fswQXJ-8" value="Live Track" style="ellipse;whiteSpace=wrap;html=1;" parent="1" vertex="1">
          <mxGeometry x="394" y="442.25" width="90" height="50" as="geometry" />
        </mxCell>
        <mxCell id="7wEqkuw75IH8k5fswQXJ-9" value="Recommend" style="ellipse;whiteSpace=wrap;html=1;" parent="1" vertex="1">
          <mxGeometry x="394" y="502.25" width="90" height="50" as="geometry" />
        </mxCell>
        <mxCell id="7wEqkuw75IH8k5fswQXJ-10" value="View Account" style="ellipse;whiteSpace=wrap;html=1;" parent="1" vertex="1">
          <mxGeometry x="394" y="562.25" width="90" height="50" as="geometry" />
        </mxCell>
        <mxCell id="7wEqkuw75IH8k5fswQXJ-11" value="Delete Account" style="ellipse;whiteSpace=wrap;html=1;" parent="1" vertex="1">
          <mxGeometry x="394" y="621.75" width="90" height="50" as="geometry" />
        </mxCell>
        <mxCell id="50inLti2EJRgn2HfQ7jm-4" value="&lt;b&gt;&lt;font style=&quot;font-size: 14px;&quot;&gt;Rapid Reach&lt;/font&gt;&lt;/b&gt;" style="text;html=1;align=center;verticalAlign=middle;whiteSpace=wrap;rounded=0;" parent="1" vertex="1">
          <mxGeometry x="379" y="70" width="130" height="30" as="geometry" />
        </mxCell>
        <mxCell id="pPjwGrO4cdEmTRhrG1MS-6" style="edgeStyle=orthogonalEdgeStyle;rounded=0;orthogonalLoop=1;jettySize=auto;html=1;" edge="1" parent="1" source="50inLti2EJRgn2HfQ7jm-10">
          <mxGeometry relative="1" as="geometry">
            <mxPoint x="120" y="490" as="targetPoint" />
            <Array as="points">
              <mxPoint x="205" y="560" />
              <mxPoint x="121" y="560" />
              <mxPoint x="121" y="520" />
              <mxPoint x="120" y="520" />
              <mxPoint x="120" y="500" />
            </Array>
          </mxGeometry>
        </mxCell>
        <mxCell id="50inLti2EJRgn2HfQ7jm-10" value="Ambulance" style="shape=umlActor;verticalLabelPosition=bottom;verticalAlign=top;html=1;outlineConnect=0;" parent="1" vertex="1">
          <mxGeometry x="190" y="585" width="30" height="60" as="geometry" />
        </mxCell>
        <mxCell id="qe3DIYtcyauWk6LwMBc2-10" value="Details" style="ellipse;whiteSpace=wrap;html=1;" parent="1" vertex="1">
          <mxGeometry x="394" y="260" width="90" height="50" as="geometry" />
        </mxCell>
        <mxCell id="qe3DIYtcyauWk6LwMBc2-11" value="Vehicles" style="shape=umlActor;verticalLabelPosition=bottom;verticalAlign=top;html=1;outlineConnect=0;" parent="1" vertex="1">
          <mxGeometry x="110" y="410" width="30" height="60" as="geometry" />
        </mxCell>
        <mxCell id="qe3DIYtcyauWk6LwMBc2-16" value="User" style="shape=umlActor;verticalLabelPosition=bottom;verticalAlign=top;html=1;outlineConnect=0;" parent="1" vertex="1">
          <mxGeometry x="719" y="160" width="30" height="60" as="geometry" />
        </mxCell>
        <mxCell id="qe3DIYtcyauWk6LwMBc2-17" value="Admin" style="shape=umlActor;verticalLabelPosition=bottom;verticalAlign=top;html=1;outlineConnect=0;" parent="1" vertex="1">
          <mxGeometry x="719" y="520" width="30" height="60" as="geometry" />
        </mxCell>
        <mxCell id="qe3DIYtcyauWk6LwMBc2-20" value="" style="endArrow=none;html=1;rounded=0;exitX=1;exitY=0.5;exitDx=0;exitDy=0;entryX=0;entryY=0.3333333333333333;entryDx=0;entryDy=0;entryPerimeter=0;" parent="1" source="7wEqkuw75IH8k5fswQXJ-4" target="qe3DIYtcyauWk6LwMBc2-16" edge="1">
          <mxGeometry width="50" height="50" relative="1" as="geometry">
            <mxPoint x="629" y="170" as="sourcePoint" />
            <mxPoint x="679" y="120" as="targetPoint" />
          </mxGeometry>
        </mxCell>
        <mxCell id="qe3DIYtcyauWk6LwMBc2-27" value="" style="endArrow=none;html=1;rounded=0;entryX=0;entryY=0.3333333333333333;entryDx=0;entryDy=0;entryPerimeter=0;exitX=1;exitY=0.5;exitDx=0;exitDy=0;" parent="1" source="7wEqkuw75IH8k5fswQXJ-11" target="qe3DIYtcyauWk6LwMBc2-17" edge="1">
          <mxGeometry width="50" height="50" relative="1" as="geometry">
            <mxPoint x="549" y="399.75" as="sourcePoint" />
            <mxPoint x="744" y="604.75" as="targetPoint" />
          </mxGeometry>
        </mxCell>
        <mxCell id="qe3DIYtcyauWk6LwMBc2-28" value="" style="endArrow=none;html=1;rounded=0;exitX=0;exitY=0.5;exitDx=0;exitDy=0;entryX=1;entryY=0.3333333333333333;entryDx=0;entryDy=0;entryPerimeter=0;" parent="1" source="7wEqkuw75IH8k5fswQXJ-4" target="qe3DIYtcyauWk6LwMBc2-11" edge="1">
          <mxGeometry width="50" height="50" relative="1" as="geometry">
            <mxPoint x="184" y="397.5" as="sourcePoint" />
            <mxPoint x="239" y="320" as="targetPoint" />
          </mxGeometry>
        </mxCell>
        <mxCell id="qe3DIYtcyauWk6LwMBc2-34" value="" style="endArrow=none;html=1;rounded=0;exitX=0;exitY=0.5;exitDx=0;exitDy=0;entryX=1;entryY=0.3333333333333333;entryDx=0;entryDy=0;entryPerimeter=0;" parent="1" source="7wEqkuw75IH8k5fswQXJ-5" target="qe3DIYtcyauWk6LwMBc2-11" edge="1">
          <mxGeometry width="50" height="50" relative="1" as="geometry">
            <mxPoint x="294" y="300" as="sourcePoint" />
            <mxPoint x="89" y="515" as="targetPoint" />
          </mxGeometry>
        </mxCell>
        <mxCell id="qe3DIYtcyauWk6LwMBc2-48" value="" style="endArrow=none;html=1;rounded=0;exitX=1;exitY=0.5;exitDx=0;exitDy=0;entryX=0;entryY=0.3333333333333333;entryDx=0;entryDy=0;entryPerimeter=0;" parent="1" source="7wEqkuw75IH8k5fswQXJ-5" target="qe3DIYtcyauWk6LwMBc2-16" edge="1">
          <mxGeometry width="50" height="50" relative="1" as="geometry">
            <mxPoint x="619" y="210" as="sourcePoint" />
            <mxPoint x="814" y="295" as="targetPoint" />
          </mxGeometry>
        </mxCell>
        <mxCell id="qe3DIYtcyauWk6LwMBc2-54" value="" style="endArrow=none;html=1;rounded=0;exitX=1;exitY=0.5;exitDx=0;exitDy=0;entryX=0;entryY=0.3333333333333333;entryDx=0;entryDy=0;entryPerimeter=0;" parent="1" source="7wEqkuw75IH8k5fswQXJ-5" target="qe3DIYtcyauWk6LwMBc2-17" edge="1">
          <mxGeometry width="50" height="50" relative="1" as="geometry">
            <mxPoint x="749" y="455" as="sourcePoint" />
            <mxPoint x="944" y="350" as="targetPoint" />
          </mxGeometry>
        </mxCell>
        <mxCell id="qe3DIYtcyauWk6LwMBc2-56" value="" style="endArrow=none;html=1;rounded=0;exitX=1;exitY=0.5;exitDx=0;exitDy=0;entryX=0;entryY=0.3333333333333333;entryDx=0;entryDy=0;entryPerimeter=0;" parent="1" source="7wEqkuw75IH8k5fswQXJ-6" target="qe3DIYtcyauWk6LwMBc2-16" edge="1">
          <mxGeometry width="50" height="50" relative="1" as="geometry">
            <mxPoint x="749" y="525" as="sourcePoint" />
            <mxPoint x="679" y="120" as="targetPoint" />
          </mxGeometry>
        </mxCell>
        <mxCell id="qe3DIYtcyauWk6LwMBc2-59" value="" style="endArrow=none;html=1;rounded=0;exitX=1;exitY=0.5;exitDx=0;exitDy=0;entryX=0;entryY=0.3333333333333333;entryDx=0;entryDy=0;entryPerimeter=0;" parent="1" source="7wEqkuw75IH8k5fswQXJ-7" target="qe3DIYtcyauWk6LwMBc2-16" edge="1">
          <mxGeometry width="50" height="50" relative="1" as="geometry">
            <mxPoint x="809" y="485" as="sourcePoint" />
            <mxPoint x="1004" y="380" as="targetPoint" />
          </mxGeometry>
        </mxCell>
        <mxCell id="qe3DIYtcyauWk6LwMBc2-61" value="" style="endArrow=none;html=1;rounded=0;exitX=0;exitY=0.3333333333333333;exitDx=0;exitDy=0;exitPerimeter=0;entryX=1;entryY=0.5;entryDx=0;entryDy=0;" parent="1" source="qe3DIYtcyauWk6LwMBc2-16" target="7wEqkuw75IH8k5fswQXJ-9" edge="1">
          <mxGeometry width="50" height="50" relative="1" as="geometry">
            <mxPoint x="779" y="525" as="sourcePoint" />
            <mxPoint x="974" y="420" as="targetPoint" />
          </mxGeometry>
        </mxCell>
        <mxCell id="qe3DIYtcyauWk6LwMBc2-70" value="" style="endArrow=none;html=1;rounded=0;exitX=0;exitY=0.5;exitDx=0;exitDy=0;entryX=1;entryY=0.3333333333333333;entryDx=0;entryDy=0;entryPerimeter=0;" parent="1" source="7wEqkuw75IH8k5fswQXJ-10" target="qe3DIYtcyauWk6LwMBc2-11" edge="1">
          <mxGeometry width="50" height="50" relative="1" as="geometry">
            <mxPoint x="314" y="780" as="sourcePoint" />
            <mxPoint x="189" y="280" as="targetPoint" />
          </mxGeometry>
        </mxCell>
        <mxCell id="qe3DIYtcyauWk6LwMBc2-71" value="" style="endArrow=none;html=1;rounded=0;exitX=0;exitY=0.5;exitDx=0;exitDy=0;entryX=1;entryY=0.3333333333333333;entryDx=0;entryDy=0;entryPerimeter=0;" parent="1" source="7wEqkuw75IH8k5fswQXJ-11" target="qe3DIYtcyauWk6LwMBc2-11" edge="1">
          <mxGeometry width="50" height="50" relative="1" as="geometry">
            <mxPoint x="454" y="770" as="sourcePoint" />
            <mxPoint x="189" y="280" as="targetPoint" />
          </mxGeometry>
        </mxCell>
        <mxCell id="qe3DIYtcyauWk6LwMBc2-73" value="" style="endArrow=none;html=1;rounded=0;exitX=1;exitY=0.5;exitDx=0;exitDy=0;entryX=0;entryY=0.3333333333333333;entryDx=0;entryDy=0;entryPerimeter=0;" parent="1" source="7wEqkuw75IH8k5fswQXJ-10" target="qe3DIYtcyauWk6LwMBc2-17" edge="1">
          <mxGeometry width="50" height="50" relative="1" as="geometry">
            <mxPoint x="439" y="670" as="sourcePoint" />
            <mxPoint x="634" y="1070" as="targetPoint" />
          </mxGeometry>
        </mxCell>
        <mxCell id="fsYnOv0Tyk64vYEKMaIF-15" value="" style="endArrow=none;html=1;rounded=0;exitX=0;exitY=0.5;exitDx=0;exitDy=0;entryX=1;entryY=0.3333333333333333;entryDx=0;entryDy=0;entryPerimeter=0;" parent="1" source="qe3DIYtcyauWk6LwMBc2-10" target="qe3DIYtcyauWk6LwMBc2-11" edge="1">
          <mxGeometry width="50" height="50" relative="1" as="geometry">
            <mxPoint x="384" y="510" as="sourcePoint" />
            <mxPoint x="99" y="400" as="targetPoint" />
          </mxGeometry>
        </mxCell>
        <mxCell id="fsYnOv0Tyk64vYEKMaIF-17" value="" style="endArrow=none;html=1;rounded=0;exitX=0;exitY=0.5;exitDx=0;exitDy=0;entryX=1;entryY=0.3333333333333333;entryDx=0;entryDy=0;entryPerimeter=0;" parent="1" source="7wEqkuw75IH8k5fswQXJ-7" target="qe3DIYtcyauWk6LwMBc2-11" edge="1">
          <mxGeometry width="50" height="50" relative="1" as="geometry">
            <mxPoint x="394" y="510" as="sourcePoint" />
            <mxPoint x="109" y="400" as="targetPoint" />
          </mxGeometry>
        </mxCell>
        <mxCell id="fsYnOv0Tyk64vYEKMaIF-21" value="" style="endArrow=none;html=1;rounded=0;exitX=0;exitY=0.3333333333333333;exitDx=0;exitDy=0;exitPerimeter=0;entryX=1;entryY=0.5;entryDx=0;entryDy=0;" parent="1" source="qe3DIYtcyauWk6LwMBc2-16" target="7wEqkuw75IH8k5fswQXJ-8" edge="1">
          <mxGeometry width="50" height="50" relative="1" as="geometry">
            <mxPoint x="884" y="330" as="sourcePoint" />
            <mxPoint x="649" y="590" as="targetPoint" />
          </mxGeometry>
        </mxCell>
        <mxCell id="fsYnOv0Tyk64vYEKMaIF-23" value="" style="endArrow=none;html=1;rounded=0;exitX=0;exitY=0.3333333333333333;exitDx=0;exitDy=0;entryX=1;entryY=0.5;entryDx=0;entryDy=0;exitPerimeter=0;" parent="1" source="qe3DIYtcyauWk6LwMBc2-17" target="qe3DIYtcyauWk6LwMBc2-10" edge="1">
          <mxGeometry width="50" height="50" relative="1" as="geometry">
            <mxPoint x="659" y="480" as="sourcePoint" />
            <mxPoint x="874" y="775" as="targetPoint" />
          </mxGeometry>
        </mxCell>
        <mxCell id="pPjwGrO4cdEmTRhrG1MS-3" style="edgeStyle=orthogonalEdgeStyle;rounded=0;orthogonalLoop=1;jettySize=auto;html=1;" edge="1" parent="1" source="fsYnOv0Tyk64vYEKMaIF-32">
          <mxGeometry relative="1" as="geometry">
            <mxPoint x="120" y="490" as="targetPoint" />
            <Array as="points">
              <mxPoint x="46" y="560" />
              <mxPoint x="121" y="560" />
              <mxPoint x="121" y="540" />
              <mxPoint x="120" y="540" />
            </Array>
          </mxGeometry>
        </mxCell>
        <mxCell id="fsYnOv0Tyk64vYEKMaIF-32" value="Police Vehicle&amp;nbsp;" style="shape=umlActor;verticalLabelPosition=bottom;verticalAlign=top;html=1;outlineConnect=0;" parent="1" vertex="1">
          <mxGeometry x="31" y="585" width="30" height="60" as="geometry" />
        </mxCell>
        <mxCell id="fsYnOv0Tyk64vYEKMaIF-33" value="&lt;div&gt;Fire truck&lt;/div&gt;" style="shape=umlActor;verticalLabelPosition=bottom;verticalAlign=top;html=1;outlineConnect=0;" parent="1" vertex="1">
          <mxGeometry x="105" y="585" width="30" height="60" as="geometry" />
        </mxCell>
        <mxCell id="fsYnOv0Tyk64vYEKMaIF-40" value="" style="endArrow=none;html=1;rounded=0;exitX=1;exitY=0.3333333333333333;exitDx=0;exitDy=0;exitPerimeter=0;entryX=0;entryY=0.5;entryDx=0;entryDy=0;" parent="1" source="qe3DIYtcyauWk6LwMBc2-11" target="7wEqkuw75IH8k5fswQXJ-6" edge="1">
          <mxGeometry width="50" height="50" relative="1" as="geometry">
            <mxPoint x="741" y="415" as="sourcePoint" />
            <mxPoint x="1026" y="350" as="targetPoint" />
          </mxGeometry>
        </mxCell>
        <mxCell id="fsYnOv0Tyk64vYEKMaIF-44" value="" style="endArrow=none;html=1;rounded=0;exitX=0;exitY=0.5;exitDx=0;exitDy=0;entryX=1;entryY=0.3333333333333333;entryDx=0;entryDy=0;entryPerimeter=0;" parent="1" source="7wEqkuw75IH8k5fswQXJ-8" target="qe3DIYtcyauWk6LwMBc2-11" edge="1">
          <mxGeometry width="50" height="50" relative="1" as="geometry">
            <mxPoint x="1016" y="430" as="sourcePoint" />
            <mxPoint x="781" y="770" as="targetPoint" />
          </mxGeometry>
        </mxCell>
        <mxCell id="pPjwGrO4cdEmTRhrG1MS-5" style="edgeStyle=orthogonalEdgeStyle;rounded=0;orthogonalLoop=1;jettySize=auto;html=1;entryX=0.333;entryY=1.333;entryDx=0;entryDy=0;entryPerimeter=0;" edge="1" parent="1" source="fsYnOv0Tyk64vYEKMaIF-33" target="qe3DIYtcyauWk6LwMBc2-11">
          <mxGeometry relative="1" as="geometry">
            <Array as="points">
              <mxPoint x="120" y="560" />
              <mxPoint x="120" y="560" />
            </Array>
          </mxGeometry>
        </mxCell>
      </root>
    </mxGraphModel>
  </diagram>
</mxfile>
